<?xml version="1.0" standalone="no"?>
<!DOCTYPE svg PUBLIC "-//W3C//DTD SVG 20010904//EN"
 "http://www.w3.org/TR/2001/REC-SVG-20010904/DTD/svg10.dtd">
<svg version="1.0" xmlns="http://www.w3.org/2000/svg"
 width="591.000000pt" height="546.000000pt" viewBox="0 0 591.000000 546.000000"
 preserveAspectRatio="xMidYMid meet">

<g transform="translate(0.000000,546.000000) scale(0.100000,-0.100000)"
fill="#000000" stroke="none">
<path d="M2985 5454 c-525 -52 -925 -190 -1322 -456 -650 -435 -1074 -1112
-1189 -1903 -25 -168 -25 -562 0 -730 45 -311 129 -583 262 -849 30 -60 54
-112 54 -116 0 -3 -40 -12 -88 -18 -183 -24 -372 -84 -489 -154 -74 -43 -157
-126 -187 -186 -26 -51 -24 -62 11 -81 39 -20 57 -13 82 35 70 131 268 228
566 278 165 28 337 38 625 37 366 0 501 -8 1355 -76 1241 -100 1460 -93 1758
56 250 125 410 310 463 537 53 226 -61 373 -259 332 -109 -22 -189 -97 -221
-207 -26 -91 -55 -141 -119 -204 -57 -57 -96 -74 -112 -49 -4 6 30 150 76 320
45 169 79 315 76 324 -7 17 -74 33 -87 20 -4 -5 -36 -111 -69 -237 -66 -248
-73 -267 -123 -314 -65 -62 -143 -77 -182 -34 -34 38 -30 78 34 319 34 128 60
239 57 247 -7 16 -75 31 -87 19 -5 -5 -29 -85 -54 -179 -25 -93 -58 -201 -73
-240 -51 -133 -170 -217 -257 -181 -39 16 -46 25 -57 74 -6 29 2 73 37 211 25
97 52 183 61 193 12 14 35 18 112 20 l96 3 0 50 0 50 -65 3 c-69 3 -100 20
-100 55 0 11 25 117 56 235 30 117 54 223 52 235 -4 27 -64 45 -84 25 -7 -7
-42 -128 -78 -268 -44 -172 -71 -259 -83 -267 -18 -14 -60 -17 -178 -13 -72 2
-105 17 -105 49 -1 9 25 118 57 243 46 180 56 232 47 245 -10 15 -1 29 60 93
86 91 142 173 206 305 88 181 140 395 140 569 -1 210 -61 341 -186 402 -46 22
-64 26 -121 22 -44 -2 -85 -12 -118 -28 -70 -33 -182 -149 -227 -235 -130
-249 -99 -540 66 -619 38 -18 121 -21 159 -7 59 23 137 119 137 169 0 11 -14
25 -35 35 -48 23 -52 22 -71 -15 -43 -86 -103 -110 -159 -66 -86 67 -88 263
-4 435 57 118 180 223 261 223 206 1 250 -379 88 -768 -62 -148 -133 -256
-235 -359 -103 -104 -191 -155 -304 -174 -172 -31 -348 56 -426 211 -67 132
-89 369 -52 560 83 430 384 784 734 866 142 33 276 -3 331 -91 45 -71 51 -75
80 -64 48 19 62 37 50 70 -13 37 -91 124 -138 154 -209 132 -575 19 -837 -257
-225 -239 -346 -549 -347 -893 -1 -170 18 -263 76 -385 72 -149 187 -242 343
-275 128 -27 255 -12 366 44 49 24 59 27 55 13 -3 -9 -30 -114 -60 -232 -37
-142 -61 -219 -73 -228 -9 -6 -34 -12 -54 -12 -58 0 -69 -8 -69 -49 0 -40 14
-61 42 -61 10 0 25 -11 34 -24 14 -23 14 -31 -11 -123 -14 -54 -32 -109 -39
-123 -7 -14 -19 -47 -25 -75 -19 -75 -40 -113 -77 -136 -62 -38 -124 -23 -124
29 0 14 29 135 65 269 70 260 71 276 20 289 -14 3 -78 5 -142 3 -105 -4 -124
-7 -175 -32 -61 -30 -121 -90 -144 -145 -19 -43 -94 -321 -94 -347 0 -72 48
-146 115 -176 51 -24 106 -23 175 1 70 25 107 25 161 0 24 -11 60 -20 79 -20
43 0 116 32 152 67 l26 25 34 -34 c81 -80 217 -74 329 14 48 38 52 39 62 22
30 -54 104 -94 174 -94 53 0 131 30 180 69 l49 38 21 -32 c12 -18 43 -43 68
-55 40 -19 57 -22 115 -16 58 5 69 3 74 -11 10 -26 -11 -39 -132 -81 -62 -22
-128 -52 -147 -66 -53 -41 -89 -110 -90 -172 l0 -52 -95 5 c-209 10 -576 35
-980 68 -764 62 -882 68 -1305 69 l-400 2 -66 132 c-421 835 -361 1859 155
2632 119 178 194 269 341 415 146 147 237 222 415 341 867 578 2033 578 2900
0 178 -119 269 -194 415 -341 147 -146 222 -237 341 -415 578 -867 578 -2033
0 -2900 -119 -178 -194 -269 -341 -415 -146 -147 -237 -222 -415 -341 -867
-578 -2033 -578 -2900 0 -177 119 -269 194 -416 341 -118 118 -215 231 -284
332 -35 52 -35 52 -80 46 -25 -3 -47 -7 -48 -9 -6 -5 77 -122 158 -223 379
-471 930 -812 1525 -945 214 -48 333 -60 595 -60 262 0 381 12 595 60 1029
230 1839 1040 2069 2069 48 214 60 333 60 595 0 262 -12 381 -60 595 -227
1016 -1020 1820 -2034 2061 -190 46 -350 65 -575 68 -115 2 -228 2 -250 0z
m371 -3194 c7 0 21 -11 30 -24 14 -23 14 -31 -11 -123 -14 -54 -38 -129 -52
-168 -50 -133 -170 -217 -257 -181 -39 16 -46 25 -57 74 -6 29 2 73 37 211 25
97 52 183 61 193 12 14 36 18 112 20 53 2 102 2 109 1 8 -2 20 -3 28 -3z
m-688 -12 c18 -18 15 -41 -32 -216 -48 -177 -70 -218 -134 -251 -93 -48 -172
-22 -172 57 0 43 60 274 83 318 18 35 52 67 92 88 36 19 146 21 163 4z m2091
-205 c48 -39 46 -161 -4 -286 -85 -211 -346 -401 -634 -462 -36 -7 -67 -13
-67 -12 -3 3 65 240 68 241 2 1 38 19 81 40 144 70 262 207 307 356 20 68 53
110 100 129 42 17 125 13 149 -6z m-781 -586 c8 -9 8 -26 0 -57 -21 -85 -71
-130 -146 -130 -47 0 -62 14 -62 57 0 45 41 88 115 118 69 28 79 30 93 12z"/>
<path d="M1739 4037 c-246 -89 -426 -366 -392 -603 36 -254 247 -384 498 -307
71 22 80 33 65 77 -13 41 -30 45 -95 21 -105 -37 -240 -6 -303 71 -115 140
-70 381 101 542 220 207 516 135 535 -129 9 -124 -35 -219 -102 -219 -52 0
-56 27 -25 175 12 57 19 110 16 119 -5 13 -25 16 -119 16 -139 0 -173 -9 -232
-61 -88 -78 -118 -187 -76 -273 30 -62 70 -89 140 -94 43 -3 69 1 108 18 39
17 61 21 89 15 21 -4 68 -8 105 -9 60 -1 70 2 105 30 132 105 129 380 -7 528
-66 71 -135 100 -250 104 -80 2 -105 -1 -161 -21z m162 -353 c10 -12 10 -27 1
-70 -14 -66 -40 -106 -86 -128 -44 -21 -69 -20 -96 2 -50 41 -16 153 58 192
45 24 105 26 123 4z"/>
<path d="M3990 3855 c-56 -18 -122 -73 -154 -128 -13 -23 -41 -110 -62 -192
-37 -145 -38 -153 -25 -209 11 -48 22 -68 61 -106 58 -59 115 -75 246 -68 98
5 174 32 240 86 l36 30 47 -48 c59 -59 116 -75 247 -68 137 6 238 60 310 164
38 55 66 134 55 153 -11 17 -65 30 -83 20 -9 -5 -19 -23 -22 -41 -9 -48 -68
-123 -120 -153 -57 -34 -146 -50 -221 -40 -48 6 -65 13 -92 40 -28 28 -33 40
-33 83 0 68 12 76 130 82 86 5 103 9 146 35 100 62 143 195 93 285 -59 105
-209 117 -316 25 -59 -50 -80 -90 -115 -212 -16 -60 -34 -124 -39 -143 -15
-53 -73 -125 -123 -155 -57 -34 -146 -50 -221 -40 -48 6 -65 13 -92 40 -28 28
-33 40 -33 83 0 68 12 76 130 82 86 5 103 9 146 35 132 82 153 274 38 346 -43
26 -118 32 -174 14z m136 -120 c32 -49 -6 -133 -72 -161 -19 -8 -54 -14 -78
-14 -36 0 -49 5 -61 23 -41 63 57 177 152 177 34 0 46 -5 59 -25z m570 0 c32
-49 -6 -133 -72 -161 -19 -8 -54 -14 -78 -14 -36 0 -49 5 -61 23 -41 63 57
177 152 177 34 0 46 -5 59 -25z"/>
<path d="M2510 2680 c-36 -16 -96 -34 -135 -41 -95 -16 -273 -6 -415 24 -217
46 -280 44 -397 -13 -75 -37 -134 -100 -177 -190 -28 -59 -31 -74 -31 -165 0
-89 3 -105 27 -150 14 -27 39 -62 55 -77 33 -31 130 -79 147 -72 16 6 39 71
31 84 -4 6 -24 18 -46 26 -140 57 -157 256 -33 393 21 24 56 52 78 63 57 29
163 35 262 14 167 -36 174 -47 130 -200 -14 -46 -48 -189 -75 -317 -28 -129
-60 -263 -71 -299 -11 -36 -20 -71 -20 -78 0 -16 64 -44 83 -36 18 7 55 136
102 364 60 290 111 464 143 493 12 11 54 19 132 26 125 11 259 47 304 82 l26
20 -20 40 c-11 21 -24 39 -28 38 -4 -1 -36 -14 -72 -29z"/>
<path d="M2955 1090 c-75 -24 -137 -76 -173 -144 l-27 -51 0 -250 0 -250 30
-53 c32 -59 66 -91 129 -125 39 -21 52 -22 291 -22 239 0 252 1 291 22 64 34
103 71 132 127 27 51 27 52 29 289 3 272 -4 307 -74 380 -78 80 -140 95 -386
96 -153 0 -192 -3 -242 -19z m513 -96 c39 -19 59 -37 78 -70 26 -44 26 -44 25
-278 0 -251 -3 -267 -53 -312 -55 -51 -72 -54 -310 -54 -253 0 -282 7 -334 76
l-29 37 -3 226 c-2 124 -1 240 3 257 8 45 68 110 118 128 32 11 89 15 247 15
198 0 207 -1 258 -25z"/>
<path d="M3416 925 c-35 -27 -13 -94 32 -95 17 0 52 37 52 55 0 18 -35 55 -52
55 -7 0 -21 -7 -32 -15z"/>
<path d="M3109 843 c-96 -49 -145 -172 -108 -270 18 -48 57 -97 91 -114 67
-33 83 -36 139 -29 69 10 108 29 144 72 97 115 65 276 -68 343 -69 34 -127 33
-198 -2z m195 -95 c53 -51 65 -95 42 -150 -24 -56 -74 -89 -134 -90 -84 0
-145 58 -145 139 0 76 70 143 149 143 38 0 50 -6 88 -42z"/>
</g>
</svg>
